; NON-PLATED HOLES START AT T1
; THROUGH (PLATED) HOLES START AT T100
M48
INCH
T100C0.032000
T101C0.040000
T102C0.035000
T103C0.038000
T104C0.036111
T105C0.015748
%
T100
X014933Y008482
X013433Y005982
X013433Y000982
X011933Y016982
X011933Y010982
X014933Y004482
X014933Y002482
X013433Y002982
X014933Y015982
X011933Y012982
X013433Y018607
X013433Y014607
X013433Y007982
X013433Y011607
X016433Y006982
X013433Y006982
X014933Y006482
X013433Y012607
X013433Y004982
X014933Y011982
X014933Y003482
X016433Y003982
X016433Y007982
X011933Y006482
X016433Y002982
X013433Y010607
X014933Y005482
X013433Y008982
X016433Y014607
X013433Y017607
X014933Y014982
X013433Y013607
X014933Y007482
X011933Y005482
X011933Y004482
X016433Y013607
X011933Y002482
X016433Y000982
X016433Y018607
X016433Y012607
X016433Y015607
X016433Y008982
X014933Y001482
X011933Y015982
X016433Y005982
X011933Y008482
X016433Y017607
X011933Y001482
X016433Y016607
X014933Y012982
X014933Y013982
X016433Y004982
X011933Y011982
X013433Y015607
X014933Y016982
X016433Y011607
X011933Y007482
X013433Y003982
X011933Y003482
X016433Y010607
X013433Y016607
X011933Y013982
X016433Y001982
X011933Y014982
X013433Y001982
X011933Y017982
X014933Y017982
X014933Y010982
T101
X001433Y017732
X001433Y018732
T102
X006808Y015732
X003808Y017732
X006808Y017732
X002808Y015732
X004808Y016607
X003808Y018732
X000808Y016607
X006808Y018732
T103
X006683Y009607
X005683Y009607
X004683Y009607
X003683Y009607
T104
X009558Y009607
X000558Y003607
X000558Y006607
X009558Y008607
X000558Y007607
X009558Y004607
X000558Y004607
X009558Y003607
X000558Y009607
X009558Y007607
X000558Y005607
X009558Y006607
X009558Y010607
X009558Y005607
X000558Y008607
X000558Y010607
T105
X018058Y001232
X010433Y015982
X017058Y019357
X002808Y009607
X010808Y005482
X010808Y014982
T00
M30
